<svg version="1.1" id="Layer_1" xmlns="http://www.w3.org/2000/svg" xmlns:xlink="http://www.w3.org/1999/xlink" x="0px" y="0px"
	 width="100%" viewBox="0 0 200 200" enable-background="new 0 0 200 200" xml:space="preserve">
<path fill="#031120" opacity="1.000000" stroke="none" 
	d="
M129.000000,201.000000 
	C86.000000,201.000000 43.500004,201.000000 1.000006,201.000000 
	C1.000004,134.333344 1.000004,67.666679 1.000002,1.000015 
	C67.666656,1.000010 134.333313,1.000010 200.999969,1.000005 
	C200.999985,67.666649 200.999985,134.333298 201.000000,200.999969 
	C177.166672,201.000000 153.333328,201.000000 129.000000,201.000000 
M49.198723,104.679024 
	C49.169697,105.464218 49.140671,106.249413 48.862427,107.256241 
	C48.862427,107.256241 48.822586,107.587364 48.277676,107.902435 
	C47.871578,108.613197 47.465477,109.323967 46.600346,110.316177 
	C46.367054,110.789490 46.133762,111.262802 45.337715,112.001373 
	C44.914867,112.680656 44.492016,113.359940 43.549526,114.505295 
	C41.610985,116.633530 40.057625,119.649872 37.649105,120.694473 
	C33.391434,122.541046 28.613180,123.187309 23.471695,124.350967 
	C22.922905,124.875336 22.374113,125.399696 21.217499,126.085480 
	C20.426008,127.274422 19.634516,128.463364 18.293852,130.121567 
	C18.086519,131.771484 17.879187,133.421402 17.380590,135.950684 
	C17.307281,139.406509 16.945173,142.891068 17.284763,146.305832 
	C17.449955,147.966934 18.926634,149.497620 20.216274,151.738663 
	C24.124754,151.763260 28.033236,151.787857 32.664963,151.848999 
	C33.024498,151.539505 33.641880,151.275818 33.706181,150.913879 
	C35.766033,139.319778 50.209805,135.584305 59.135990,144.708176 
	C60.433270,147.034470 61.730553,149.360779 63.920280,151.966843 
	C68.951920,151.915222 73.983551,151.863586 79.922638,151.996872 
	C82.089630,152.123016 84.256630,152.249176 86.795471,152.774826 
	C90.873138,155.111038 94.950806,157.447235 99.566017,160.236893 
	C103.267288,162.434601 106.968559,164.632324 110.972961,167.360168 
	C113.276535,168.532669 115.452614,170.976562 118.849945,167.964905 
	C126.225166,163.582428 133.600388,159.199951 141.587982,154.778336 
	C142.403152,154.155869 143.218323,153.533401 144.697891,152.742584 
	C155.696899,146.321320 166.790375,140.052353 177.609207,133.340652 
	C179.594101,132.109283 181.537888,129.135071 181.654968,126.869919 
	C182.081528,118.618233 181.725555,110.326088 181.810165,101.115868 
	C181.822739,91.974892 181.731674,82.831963 181.903885,73.693993 
	C181.964447,70.481331 180.825714,68.410820 178.082382,66.816460 
	C165.039856,59.236427 152.053619,51.559536 138.635239,43.371738 
	C132.244949,39.619640 125.912231,35.762878 119.421951,32.192524 
	C117.889954,31.349760 115.827675,31.470934 113.318794,31.230536 
	C93.206261,43.065914 73.051979,54.831852 53.052391,66.855118 
	C51.255512,67.935356 49.439774,70.645317 49.371883,72.657112 
	C49.053383,82.095131 49.343304,91.553680 49.234882,101.718605 
	C49.280369,102.449692 49.325859,103.180779 49.198723,104.679024 
M45.896183,165.091446 
	C46.392944,165.121948 46.890656,165.189850 47.386322,165.177246 
	C53.360477,165.025421 57.899963,161.355255 58.663914,156.073029 
	C59.388424,151.063492 56.044804,145.584595 51.193493,143.831909 
	C46.306866,142.066437 41.175404,144.230865 38.185162,149.318756 
	C34.608074,155.405182 37.416740,161.794205 45.896183,165.091446 
z"/>
<path fill="#98A2A6" opacity="1.000000" stroke="none" 
	d="
M139.047348,43.917118 
	C152.053619,51.559536 165.039856,59.236427 178.082382,66.816460 
	C180.825714,68.410820 181.964447,70.481331 181.903885,73.693993 
	C181.731674,82.831963 181.822739,91.974892 181.293793,101.563705 
	C174.838547,102.144829 168.899658,102.278122 162.491272,102.338974 
	C154.343979,102.161324 146.666214,102.056099 139.005188,101.485458 
	C139.030411,81.985733 139.038879,62.951424 139.047348,43.917118 
z"/>
<path fill="#B8C5CC" opacity="1.000000" stroke="none" 
	d="
M138.841293,43.644428 
	C139.038879,62.951424 139.030411,81.985733 138.545242,101.578514 
	C130.712662,102.056732 123.356773,101.976471 115.875893,101.716965 
	C115.558411,101.313560 115.330811,101.133926 114.943398,100.544792 
	C114.880562,83.723503 114.942406,67.356224 115.015167,50.522053 
	C114.687172,43.752998 114.348251,37.450836 114.009338,31.148678 
	C115.827675,31.470934 117.889954,31.349760 119.421951,32.192524 
	C125.912231,35.762878 132.244949,39.619640 138.841293,43.644428 
z"/>
<path fill="#B0BEC6" opacity="1.000000" stroke="none" 
	d="
M113.664062,31.189606 
	C114.348251,37.450836 114.687172,43.752998 114.657005,50.356239 
	C98.633179,59.764603 82.978439,68.871887 67.093155,78.084167 
	C66.887215,79.092339 66.911812,79.995499 67.004639,81.367798 
	C67.018547,86.907227 66.964226,91.977516 66.539871,97.212265 
	C62.107681,98.236588 58.045525,99.096458 53.647049,99.984123 
	C52.012470,100.342918 50.714214,100.673912 49.415958,101.004898 
	C49.343304,91.553680 49.053383,82.095131 49.371883,72.657112 
	C49.439774,70.645317 51.255512,67.935356 53.052391,66.855118 
	C73.051979,54.831852 93.206261,43.065914 113.664062,31.189606 
z"/>
<path fill="#1F5EA6" opacity="1.000000" stroke="none" 
	d="
M162.960770,102.411407 
	C168.899658,102.278122 174.838547,102.144829 181.220993,102.030365 
	C181.725555,110.326088 182.081528,118.618233 181.654968,126.869919 
	C181.537888,129.135071 179.594101,132.109283 177.609207,133.340652 
	C166.790375,140.052353 155.696899,146.321320 144.081512,152.660629 
	C142.619308,152.583084 141.773499,152.587479 140.472519,152.503220 
	C132.662277,152.250626 125.307198,152.086700 117.968521,151.577606 
	C118.000488,150.540970 118.016060,149.849487 118.386276,149.094727 
	C122.313919,146.889374 125.886917,144.747284 129.785446,142.473969 
	C139.758530,136.756958 149.378479,131.122574 159.070526,125.615120 
	C161.972397,123.966133 163.407227,121.874313 163.218781,118.396202 
	C162.930679,113.078888 163.027405,107.740723 162.960770,102.411407 
z"/>
<path fill="#78B6DC" opacity="1.000000" stroke="none" 
	d="
M48.822586,107.587364 
	C48.822586,107.587364 48.862427,107.256241 49.298294,107.056870 
	C50.456615,105.862709 51.179070,104.867905 51.968285,103.573883 
	C52.659172,102.499207 53.283306,101.723740 54.308487,100.871231 
	C57.157440,100.518127 59.605350,100.242073 61.911976,100.279091 
	C60.844765,102.347748 59.918831,104.103333 58.618706,105.931915 
	C50.696743,107.972488 49.805576,115.846695 44.640728,119.928719 
	C44.915466,120.441704 45.190208,120.954689 45.464947,121.467674 
	C47.687901,120.982758 49.910851,120.497833 52.360420,120.144485 
	C53.052685,120.513847 53.518330,120.751625 54.419456,121.052917 
	C56.900154,121.199219 58.945370,121.282013 60.989502,121.635849 
	C61.006271,122.267715 61.024132,122.628555 61.035637,123.442650 
	C61.349228,129.931686 61.669178,135.967468 61.759281,142.210907 
	C60.668587,142.954193 59.807739,143.489792 58.946892,144.025391 
	C50.209805,135.584305 35.766033,139.319778 33.706181,150.913879 
	C33.641880,151.275818 33.024498,151.539505 31.949818,151.634949 
	C27.426319,151.309723 23.617970,151.198547 19.809620,151.087341 
	C18.926634,149.497620 17.449955,147.966934 17.284763,146.305832 
	C16.945173,142.891068 17.307281,139.406509 17.782835,135.276764 
	C18.404396,132.952682 18.623713,131.302490 18.843025,129.652313 
	C19.634516,128.463364 20.426008,127.274422 21.817497,125.986664 
	C22.962601,125.370544 23.507708,124.853249 24.052814,124.335953 
	C28.613180,123.187309 33.391434,122.541046 37.649105,120.694473 
	C40.057625,119.649872 41.610985,116.633530 44.106544,114.160446 
	C45.075863,113.122429 45.488163,112.429268 45.900467,111.736107 
	C46.133762,111.262802 46.367054,110.789490 47.134529,110.054657 
	C48.053341,109.057877 48.437962,108.322617 48.822586,107.587364 
M24.653353,129.569565 
	C24.163828,131.749023 23.674303,133.928467 23.184776,136.107925 
	C25.004070,135.535370 27.443062,135.499954 28.506872,134.272598 
	C30.412886,132.073532 30.737875,129.348679 26.617994,127.814224 
	C26.077097,128.199631 25.536200,128.585037 24.653353,129.569565 
z"/>
<path fill="#2679B7" opacity="1.000000" stroke="none" 
	d="
M86.423622,152.375336 
	C84.256630,152.249176 82.089630,152.123016 79.456757,151.449600 
	C78.920044,133.663055 78.849205,116.423790 78.819588,98.957199 
	C78.860809,98.729889 79.021576,98.298882 79.477829,98.219261 
	C81.759186,98.118530 83.584274,98.080231 85.409386,98.079353 
	C92.401512,98.076019 92.402832,98.080498 92.434937,104.844940 
	C92.445168,107.002136 92.376633,109.162216 92.464348,111.316078 
	C92.766815,118.744034 93.122368,126.169823 93.309296,134.078796 
	C92.790955,140.360809 92.421021,146.160446 91.644150,152.024368 
	C89.632683,152.184219 88.028152,152.279785 86.423622,152.375336 
z"/>
<path fill="#68B2E1" opacity="1.000000" stroke="none" 
	d="
M78.778366,99.184517 
	C78.849205,116.423790 78.920044,133.663055 79.003036,151.357147 
	C73.983551,151.863586 68.951920,151.915222 63.473129,151.432663 
	C62.680359,147.933411 62.334743,144.968323 61.989128,142.003250 
	C61.669178,135.967468 61.349228,129.931686 61.449936,123.446335 
	C64.256744,122.452217 66.642891,121.907677 69.345551,121.263214 
	C70.103195,121.160515 70.544334,121.157730 71.086258,121.471024 
	C72.487244,124.349388 74.399193,124.296272 75.742737,122.210388 
	C76.915367,120.389870 77.691811,118.078506 77.893333,115.914177 
	C78.410660,110.358322 78.511215,104.763664 78.778366,99.184517 
z"/>
<path fill="#98A2A7" opacity="1.000000" stroke="none" 
	d="
M117.952126,151.922760 
	C125.307198,152.086700 132.662277,152.250626 140.480469,152.778137 
	C140.954254,153.700302 140.964920,154.258881 140.975586,154.817474 
	C133.600388,159.199951 126.225166,163.582428 118.144028,167.961365 
	C115.182014,167.581894 112.925919,167.205963 110.669830,166.830032 
	C106.968559,164.632324 103.267288,162.434601 99.310196,159.651978 
	C100.043015,156.882294 101.031662,154.697510 102.462265,152.457901 
	C105.264175,152.478012 107.624146,152.552963 110.168961,152.857239 
	C111.904503,152.892212 113.455193,152.697876 115.369171,152.406525 
	C116.472351,152.180588 117.212234,152.051682 117.952126,151.922760 
z"/>
<path fill="#6DA6CA" opacity="1.000000" stroke="none" 
	d="
M45.484432,165.038788 
	C37.416740,161.794205 34.608074,155.405182 38.185162,149.318756 
	C41.175404,144.230865 46.306866,142.066437 51.193493,143.831909 
	C56.044804,145.584595 59.388424,151.063492 58.663914,156.073029 
	C57.899963,161.355255 53.360477,165.025421 47.386322,165.177246 
	C46.890656,165.189850 46.392944,165.121948 45.484432,165.038788 
M44.253799,158.350006 
	C47.226456,159.693329 50.464661,160.114288 51.706009,156.596375 
	C52.305492,154.897491 51.019188,152.054153 49.738457,150.376694 
	C49.115753,149.561111 45.312870,149.731018 45.071518,150.321747 
	C44.131332,152.622925 44.040546,155.271133 44.253799,158.350006 
z"/>
<path fill="#86959F" opacity="1.000000" stroke="none" 
	d="
M102.020309,152.512741 
	C101.031662,154.697510 100.043015,156.882294 99.041428,159.425262 
	C94.950806,157.447235 90.873138,155.111038 86.609543,152.575073 
	C88.028152,152.279785 89.632683,152.184219 92.092102,152.082855 
	C95.971428,152.222275 98.995872,152.367508 102.020309,152.512741 
z"/>
<path fill="#6FAFD7" opacity="1.000000" stroke="none" 
	d="
M61.759281,142.210907 
	C62.334743,144.968323 62.680359,147.933411 63.026909,151.292786 
	C61.730553,149.360779 60.433270,147.034470 59.041443,144.366791 
	C59.807739,143.489792 60.668587,142.954193 61.759281,142.210907 
z"/>
<path fill="#6FA3C3" opacity="1.000000" stroke="none" 
	d="
M20.012947,151.413010 
	C23.617970,151.198547 27.426319,151.309723 31.588192,151.616684 
	C28.033236,151.787857 24.124754,151.763260 20.012947,151.413010 
z"/>
<path fill="#86959F" opacity="1.000000" stroke="none" 
	d="
M110.821396,167.095093 
	C112.925919,167.205963 115.182014,167.581894 117.801086,168.019531 
	C115.452614,170.976562 113.276535,168.532669 110.821396,167.095093 
z"/>
<path fill="#B3C9D2" opacity="1.000000" stroke="none" 
	d="
M53.907440,100.948273 
	C53.283306,101.723740 52.659172,102.499207 51.654160,103.604393 
	C50.639301,103.926697 50.005322,103.919281 49.371346,103.911865 
	C49.325859,103.180779 49.280369,102.449692 49.325420,101.361755 
	C50.714214,100.673912 52.012470,100.342918 53.630920,100.232559 
	C53.951118,100.453186 53.907440,100.948273 53.907440,100.948273 
z"/>
<path fill="#6FA3C3" opacity="1.000000" stroke="none" 
	d="
M18.568439,129.886932 
	C18.623713,131.302490 18.404396,132.952682 17.928467,134.837097 
	C17.879187,133.421402 18.086519,131.771484 18.568439,129.886932 
z"/>
<path fill="#7DA2BA" opacity="1.000000" stroke="none" 
	d="
M49.285034,104.295441 
	C50.005322,103.919281 50.639301,103.926697 51.587402,103.903610 
	C51.179070,104.867905 50.456615,105.862709 49.422905,106.946060 
	C49.140671,106.249413 49.169697,105.464218 49.285034,104.295441 
z"/>
<path fill="#86959F" opacity="1.000000" stroke="none" 
	d="
M141.281784,154.797913 
	C140.964920,154.258881 140.954254,153.700302 140.935638,152.866791 
	C141.773499,152.587479 142.619308,152.583084 143.749298,152.744812 
	C143.218323,153.533401 142.403152,154.155869 141.281784,154.797913 
z"/>
<path fill="#7DA2BA" opacity="1.000000" stroke="none" 
	d="
M45.619087,111.868744 
	C45.488163,112.429268 45.075863,113.122429 44.366364,113.927406 
	C44.492016,113.359940 44.914867,112.680656 45.619087,111.868744 
z"/>
<path fill="#7DA2BA" opacity="1.000000" stroke="none" 
	d="
M48.550133,107.744904 
	C48.437962,108.322617 48.053341,109.057877 47.364044,109.913925 
	C47.465477,109.323967 47.871578,108.613197 48.550133,107.744904 
z"/>
<path fill="#6FA3C3" opacity="1.000000" stroke="none" 
	d="
M23.762255,124.343460 
	C23.507708,124.853249 22.962601,125.370544 22.121410,125.905945 
	C22.374113,125.399696 22.922905,124.875336 23.762255,124.343460 
z"/>
<path fill="#051322" opacity="1.000000" stroke="none" 
	d="
M93.457710,133.596436 
	C93.122368,126.169823 92.766815,118.744034 92.464348,111.316078 
	C92.376633,109.162216 92.445168,107.002136 92.434937,104.844940 
	C92.402832,98.080498 92.401512,98.076019 85.409386,98.079353 
	C83.584274,98.080231 81.759186,98.118530 79.016357,98.144424 
	C74.714966,98.174652 71.331306,98.200089 67.798546,98.008690 
	C67.402931,97.543839 67.156418,97.295822 66.909912,97.047806 
	C66.964226,91.977516 67.018547,86.907227 67.155930,81.109406 
	C67.267220,79.580978 67.295456,78.780067 67.323692,77.979172 
	C82.978439,68.871887 98.633179,59.764603 114.646080,50.823132 
	C114.942406,67.356224 114.880562,83.723503 114.926300,100.827545 
	C115.356224,101.674942 115.678558,101.785576 116.000893,101.896210 
	C123.356773,101.976471 130.712662,102.056732 138.528488,102.043930 
	C146.666214,102.056099 154.343979,102.161324 162.491272,102.338974 
	C163.027405,107.740723 162.930679,113.078888 163.218781,118.396202 
	C163.407227,121.874313 161.972397,123.966133 159.070526,125.615120 
	C149.378479,131.122574 139.758530,136.756958 129.423111,142.277771 
	C126.995522,141.266220 125.306938,140.206451 123.506989,139.393143 
	C116.631279,136.286377 114.092300,136.745392 108.666901,141.762817 
	C103.373718,138.988831 98.415710,136.292633 93.457710,133.596436 
z"/>
<path fill="#A9BAC4" opacity="1.000000" stroke="none" 
	d="
M115.875893,101.716965 
	C115.678558,101.785576 115.356224,101.674942 115.050980,101.281555 
	C115.330811,101.133926 115.558411,101.313560 115.875893,101.716965 
z"/>
<path fill="#7DA2BA" opacity="1.000000" stroke="none" 
	d="
M66.539871,97.212265 
	C67.156418,97.295822 67.402931,97.543839 67.567490,98.267075 
	C65.674767,99.150200 63.864014,99.558105 62.053257,99.966019 
	C59.605350,100.242073 57.157440,100.518127 54.308487,100.871231 
	C53.907440,100.948273 53.951118,100.453186 53.967247,100.204758 
	C58.045525,99.096458 62.107681,98.236588 66.539871,97.212265 
z"/>
<path fill="#7DA2BA" opacity="1.000000" stroke="none" 
	d="
M67.093155,78.084167 
	C67.295456,78.780067 67.267220,79.580978 67.087692,80.640274 
	C66.911812,79.995499 66.887215,79.092339 67.093155,78.084167 
z"/>
<path fill="#18497B" opacity="1.000000" stroke="none" 
	d="
M93.309296,134.078796 
	C98.415710,136.292633 103.373718,138.988831 108.844505,142.058380 
	C112.248734,144.673813 115.140175,146.915909 118.031624,149.158005 
	C118.016060,149.849487 118.000488,150.540970 117.968521,151.577606 
	C117.212234,152.051682 116.472351,152.180588 114.959190,152.294525 
	C112.785316,152.395676 111.384712,152.511795 109.984108,152.627899 
	C107.624146,152.552963 105.264175,152.478012 102.462265,152.457901 
	C98.995872,152.367508 95.971428,152.222275 92.499039,152.018555 
	C92.421021,146.160446 92.790955,140.360809 93.309296,134.078796 
z"/>
<path fill="#0D2C4F" opacity="1.000000" stroke="none" 
	d="
M118.386276,149.094727 
	C115.140175,146.915909 112.248734,144.673813 109.179688,142.136169 
	C114.092300,136.745392 116.631279,136.286377 123.506989,139.393143 
	C125.306938,140.206451 126.995522,141.266220 129.097580,142.409012 
	C125.886917,144.747284 122.313919,146.889374 118.386276,149.094727 
z"/>
<path fill="#081929" opacity="1.000000" stroke="none" 
	d="
M70.985474,121.154945 
	C70.544334,121.157730 70.103195,121.160515 68.903030,121.186729 
	C65.759529,121.261711 63.375057,121.313255 60.990589,121.364807 
	C58.945370,121.282013 56.900154,121.199219 54.390053,120.673981 
	C53.686954,119.179077 53.448738,118.126633 53.210522,117.074181 
	C52.893379,117.128021 52.576237,117.181862 52.259094,117.235703 
	C52.217331,118.161438 52.175568,119.087181 52.133804,120.012917 
	C49.910851,120.497833 47.687901,120.982758 45.464947,121.467674 
	C45.190208,120.954689 44.915466,120.441704 44.640728,119.928719 
	C49.805576,115.846695 50.696743,107.972488 59.033791,106.010544 
	C62.766026,105.835930 65.719215,105.442749 68.646751,105.583374 
	C69.770592,105.637352 71.776688,106.911118 71.774765,107.624763 
	C71.762642,112.135498 71.299637,116.645020 70.985474,121.154945 
z"/>
<path fill="#6FAFD7" opacity="1.000000" stroke="none" 
	d="
M71.086258,121.471024 
	C71.299637,116.645020 71.762642,112.135498 71.774765,107.624763 
	C71.776688,106.911118 69.770592,105.637352 68.646751,105.583374 
	C65.719215,105.442749 62.766026,105.835930 59.407982,105.937546 
	C59.918831,104.103333 60.844765,102.347748 61.911976,100.279091 
	C63.864014,99.558105 65.674767,99.150200 67.716583,98.483910 
	C71.331306,98.200089 74.714966,98.174652 78.560104,98.224045 
	C79.021576,98.298882 78.860809,98.729889 78.819588,98.957199 
	C78.511215,104.763664 78.410660,110.358322 77.893333,115.914177 
	C77.691811,118.078506 76.915367,120.389870 75.742737,122.210388 
	C74.399193,124.296272 72.487244,124.349388 71.086258,121.471024 
z"/>
<path fill="#D3EFF6" opacity="1.000000" stroke="none" 
	d="
M27.028297,128.036606 
	C30.737875,129.348679 30.412886,132.073532 28.506872,134.272598 
	C27.443062,135.499954 25.004070,135.535370 23.184776,136.107925 
	C23.674303,133.928467 24.163828,131.749023 25.099823,129.205414 
	C26.040293,128.573044 26.534294,128.304825 27.028297,128.036606 
z"/>
<path fill="#6FAFD7" opacity="1.000000" stroke="none" 
	d="
M60.989502,121.635841 
	C63.375057,121.313255 65.759529,121.261711 68.586517,121.286652 
	C66.642891,121.907677 64.256744,122.452217 61.456291,122.993073 
	C61.024132,122.628555 61.006271,122.267715 60.989502,121.635841 
z"/>
<path fill="#6FAFD7" opacity="1.000000" stroke="none" 
	d="
M52.360420,120.144485 
	C52.175568,119.087181 52.217331,118.161438 52.259094,117.235703 
	C52.576237,117.181862 52.893379,117.128021 53.210522,117.074181 
	C53.448738,118.126633 53.686954,119.179077 53.954575,120.610474 
	C53.518330,120.751625 53.052685,120.513847 52.360420,120.144485 
z"/>
<path fill="#6FA3C3" opacity="1.000000" stroke="none" 
	d="
M26.823147,127.925415 
	C26.534294,128.304825 26.040293,128.573044 25.270798,128.905853 
	C25.536200,128.585037 26.077097,128.199631 26.823147,127.925415 
z"/>
<path fill="#86959F" opacity="1.000000" stroke="none" 
	d="
M110.168961,152.857239 
	C111.384712,152.511795 112.785316,152.395676 114.595901,152.391541 
	C113.455193,152.697876 111.904503,152.892212 110.168961,152.857239 
z"/>
<path fill="#0B1E2E" opacity="1.000000" stroke="none" 
	d="
M43.943802,158.070129 
	C44.040546,155.271133 44.131332,152.622925 45.071518,150.321747 
	C45.312870,149.731018 49.115753,149.561111 49.738457,150.376694 
	C51.019188,152.054153 52.305492,154.897491 51.706009,156.596375 
	C50.464661,160.114288 47.226456,159.693329 43.943802,158.070129 
z"/>
</svg>